<?xml version="1.0" encoding="UTF-8" standalone="no"?>
<svg width="28px" height="26px" viewBox="0 0 28 26" version="1.1" xmlns="http://www.w3.org/2000/svg" xmlns:xlink="http://www.w3.org/1999/xlink" xmlns:sketch="http://www.bohemiancoding.com/sketch/ns">
    <!-- Generator: Sketch 3.4.2 (15855) - http://www.bohemiancoding.com/sketch -->
    <title>img_weixin</title>
    <desc>Created with Sketch.</desc>
    <defs></defs>
    <g id="Welcome" stroke="none" stroke-width="1" fill="none" fill-rule="evenodd" sketch:type="MSPage">
        <g id="Desktop-HD-Copy" sketch:type="MSArtboardGroup" transform="translate(-707.000000, -5403.000000)" fill="#000000">
            <g id="8" sketch:type="MSLayerGroup" transform="translate(0.000000, 4903.000000)">
                <path d="M728.800294,516.342493 C728.340039,516.342493 727.876349,515.882237 727.876349,515.408243 C727.876349,514.944553 728.340039,514.477429 728.800294,514.477429 C729.497547,514.477429 729.964671,514.944553 729.964671,515.408243 C729.964671,515.882237 729.497547,516.342493 728.800294,516.342493 M723.675662,516.342493 C723.211973,516.342493 722.744848,515.882237 722.744848,515.408243 C722.744848,514.944553 723.211973,514.477429 723.675662,514.477429 C724.379784,514.477429 724.840039,514.944553 724.840039,515.408243 C724.843474,515.882237 724.379784,516.342493 723.675662,516.342493 M730.387144,521.817468 C730.105496,522.030422 729.98528,522.394504 730.084887,522.734544 L730.191364,523.091757 L729.442591,522.683023 C729.31894,522.614328 729.178116,522.57998 729.037291,522.57998 C728.968597,522.57998 728.899902,522.58685 728.831207,522.604024 C727.924436,522.830716 727.065751,523.04367 726.244848,523.04367 C722.342983,523.04367 719.165849,520.392051 719.165849,517.129048 C719.165849,513.866045 722.339549,511.214426 726.244848,511.214426 C730.074583,511.214426 733.310108,513.924436 733.310108,517.129048 C733.313543,519.296369 731.479392,520.996565 730.387144,521.817468 M714.601079,515.497547 C714.425908,515.463199 714.243867,515.425417 714.054956,515.387635 C713.872915,515.349853 713.680569,515.377331 713.512267,515.459764 L712.083415,516.18106 L712.371933,515.315505 C712.488714,514.961727 712.361629,514.570167 712.055937,514.357213 C709.823356,512.797841 708.689892,510.912169 708.689892,508.762022 C708.689892,504.860157 712.488714,501.686457 717.159961,501.686457 C721.3263,501.686457 725.011776,504.210991 725.733072,507.559863 L725.733072,507.563297 C725.757115,507.680079 725.946026,508.597154 725.81894,509.538273 C723.64475,509.627576 721.618253,510.393523 720.076055,511.715898 C719.265456,512.409715 718.630029,513.223749 718.183513,514.133955 C717.915604,514.680079 717.723258,515.250245 717.609912,515.830716 C717.451914,515.837586 717.30422,515.841021 717.159961,515.841021 C716.263494,515.837586 715.494112,515.679588 714.601079,515.497547 M734.258096,514.116781 C733.794406,513.216879 733.141806,512.406281 732.310599,511.709028 C731.5,511.025515 730.565751,510.489696 729.535329,510.111874 C728.875859,509.871443 728.19578,509.70314 727.505397,509.610402 C727.629048,508.466634 727.429833,507.432777 727.378312,507.20265 C726.9421,505.179588 725.654073,503.335132 723.751227,502.012758 C721.886163,500.714426 719.54367,500 717.156526,500 C714.470559,500 711.942591,500.886163 710.03631,502.497056 C708.078508,504.145731 707,506.371443 707,508.758587 C707,510.156526 707.374387,511.482336 708.112856,512.691364 C708.703631,513.659961 709.531403,514.556428 710.575564,515.363592 L709.837095,517.582434 C709.730618,517.905299 709.826791,518.262512 710.084396,518.48577 C710.242395,518.62316 710.438175,518.691855 710.63739,518.691855 C710.764475,518.691855 710.894995,518.660942 711.015211,518.602552 L714.010304,517.10157 C714.096173,517.118744 714.178606,517.135918 714.26104,517.153091 C715.202159,517.345437 716.088322,517.527478 717.153091,517.527478 C717.263003,517.527478 717.372915,517.527478 717.489696,517.520608 C717.541217,518.423945 717.771344,519.299804 718.180079,520.131011 C718.626595,521.041217 719.262022,521.85525 720.07262,522.549068 C721.714426,523.957311 723.90579,524.733562 726.244848,524.733562 C727.161923,524.733562 728.054956,524.534347 728.923945,524.321394 L731.187439,525.561335 C731.314524,525.630029 731.455348,525.664377 731.592738,525.664377 C731.781649,525.664377 731.970559,525.599117 732.125123,525.475466 C732.389598,525.259078 732.499509,524.905299 732.403337,524.578999 L731.867517,522.796369 C732.722767,522.092247 733.416585,521.329735 733.935231,520.526006 C734.642787,519.430324 735,518.286555 735,517.125613 C735,516.088322 734.749264,515.075074 734.258096,514.116781 M714.13052,507.52208 C713.433268,507.52208 712.729146,507.054956 712.729146,506.357704 C712.729146,505.657017 713.433268,505.196762 714.13052,505.196762 C714.827772,505.196762 715.291462,505.660451 715.291462,506.357704 C715.294897,507.054956 714.827772,507.52208 714.13052,507.52208 M720.649657,505.193327 C721.350343,505.193327 721.814033,505.657017 721.814033,506.354269 C721.814033,507.051521 721.350343,507.518646 720.649657,507.518646 C719.952404,507.518646 719.251717,507.051521 719.251717,506.354269 C719.248283,505.657017 719.952404,505.193327 720.649657,505.193327" id="img_weixin" sketch:type="MSShapeGroup"></path>
            </g>
        </g>
    </g>
</svg>