<?xml version="1.0" encoding="UTF-8" standalone="no"?>
<svg width="25px" height="25px" viewBox="0 0 25 25" version="1.1" xmlns="http://www.w3.org/2000/svg" xmlns:xlink="http://www.w3.org/1999/xlink" xmlns:sketch="http://www.bohemiancoding.com/sketch/ns">
    <!-- Generator: Sketch 3.4.2 (15855) - http://www.bohemiancoding.com/sketch -->
    <title>img_phone</title>
    <desc>Created with Sketch.</desc>
    <defs></defs>
    <g id="Welcome" stroke="none" stroke-width="1" fill="none" fill-rule="evenodd" sketch:type="MSPage">
        <g id="Desktop-HD-Copy" sketch:type="MSArtboardGroup" transform="translate(-1140.000000, -5398.000000)" fill="#000000">
            <g id="8" sketch:type="MSLayerGroup" transform="translate(0.000000, 4903.000000)">
                <path d="M1158.97764,503.311643 L1157.187,501.525651 C1156.79494,501.135135 1156.86157,500.589652 1157.187,500.11003 L1159.31547,497.280336 C1159.70754,496.757323 1160.3429,496.889045 1160.73419,497.280336 L1162.15369,498.695183 C1162.71002,499.217421 1162.54885,500.434685 1162.25519,501.020459 C1160.93797,503.522398 1158.01298,507.374872 1155.56528,509.915552 C1152.74178,512.969173 1146.08751,517.143203 1146.08751,517.143203 C1145.57379,517.41207 1144.1481,517.432991 1143.75603,517.0417 L1142.33731,515.626853 C1142.04442,515.137158 1141.9127,514.569205 1142.33731,514.212006 L1145.17553,512.088962 C1145.65593,511.764306 1146.20218,511.698445 1146.59425,512.088962 L1148.34305,513.832338 C1148.75526,513.543325 1155.32353,509.237573 1158.97764,503.311643 M1161.14021,495.460251 L1163.3694,497.684025 C1164.60139,498.912911 1164.00942,500.378897 1163.3694,502.132346 C1163.3694,502.132346 1160.30339,507.343104 1156.33933,511.296306 C1152.12501,515.499006 1147.20249,518.25509 1147.20249,518.25509 C1145.57612,519.089586 1143.97454,519.483201 1142.74255,518.25509 L1140.51258,516.031316 C1139.89658,515.416873 1139.76486,514.322808 1140.51258,513.807543 L1144.97252,510.471883 C1145.72798,509.962043 1146.5865,509.85744 1147.20249,510.471883 L1148.52126,511.786776 C1150.0686,510.636148 1151.78874,509.233699 1153.3353,507.691779 C1154.70289,506.328072 1155.91783,504.848914 1156.92976,503.492954 L1155.56528,502.132346 C1154.94928,501.517903 1155.05389,500.660936 1155.56528,499.908573 L1158.91023,495.460251 C1159.52545,494.846583 1160.52421,494.846583 1161.13943,495.460251" id="img_phone" sketch:type="MSShapeGroup"></path>
            </g>
        </g>
    </g>
</svg>