<?xml version="1.0" encoding="UTF-8" standalone="no"?>
<svg width="50px" height="50px" viewBox="0 0 50 50" version="1.1" xmlns="http://www.w3.org/2000/svg" xmlns:xlink="http://www.w3.org/1999/xlink" xmlns:sketch="http://www.bohemiancoding.com/sketch/ns">
    <!-- Generator: Sketch 3.4.2 (15855) - http://www.bohemiancoding.com/sketch -->
    <title>logo</title>
    <desc>Created with Sketch.</desc>
    <defs></defs>
    <g id="Welcome" stroke="none" stroke-width="1" fill="none" fill-rule="evenodd" sketch:type="MSPage">
        <g id="Desktop-HD-Copy" sketch:type="MSArtboardGroup" transform="translate(-695.000000, -26.000000)" fill="#FFFFFF">
            <g id="1" sketch:type="MSLayerGroup">
                <g id="topbar-copy" transform="translate(435.000000, 26.000000)" sketch:type="MSShapeGroup">
                    <path d="M260,50 L310,50 L310,0 L260,0 L260,50 Z M263.41133,3.41107813 L306.588922,3.41107813 L306.588922,46.5886699 L263.41133,46.5886699 L263.41133,3.41107813 Z M273.763198,6.93265029 L273.763198,21.171388 L282.887964,21.171388 L282.887964,24.5509684 L269.933326,24.5509684 L269.933326,6.93265029 L273.763198,6.93265029 Z M301.498007,6.81540315 L301.498007,10.2174099 L291.337343,10.2174099 L291.337343,13.8913051 L300.432124,13.8913051 L300.432124,17.2933119 L291.337343,17.2933119 L291.337343,21.148886 L301.543364,21.148886 L301.543364,24.5508928 L287.481517,24.5508928 L287.481517,6.81540315 L301.498007,6.81540315 Z M274.149637,37.019962 L278.484984,37.019962 L276.388496,31.3617098 L276.347674,31.3617098 L274.149637,37.019962 Z M274.454787,27.4539755 L278.301542,27.4539755 L284.509618,43.3699043 L280.866213,43.3699043 L279.624698,40.0729739 L272.969102,40.0729739 L271.707177,43.3699043 L268.084182,43.3699043 L274.454787,27.4539755 Z M291.104613,27.4538999 L298.187822,37.9355884 L298.228139,37.9355884 L298.228139,27.4538999 L301.688354,27.4538999 L301.688354,43.3700807 L298.065611,43.3700807 L290.982654,32.8881402 L290.941833,32.8881402 L290.941833,43.3700807 L287.481618,43.3700807 L287.481618,27.4538999 L291.104613,27.4538999 Z" id="logo"></path>
                </g>
            </g>
        </g>
    </g>
</svg>